<?xml version="1.0" standalone="no"?>
<!DOCTYPE svg PUBLIC "-//W3C//DTD SVG 20010904//EN"
 "http://www.w3.org/TR/2001/REC-SVG-20010904/DTD/svg10.dtd">
<svg version="1.0" xmlns="http://www.w3.org/2000/svg"
 width="260.000000pt" height="260.000000pt" viewBox="0 0 260.000000 260.000000"
 preserveAspectRatio="xMidYMid meet">
<metadata>
Created by potrace 1.11, written by Peter Selinger 2001-2013
</metadata>
<g transform="translate(0.000000,260.000000) scale(0.100000,-0.100000)"
fill="#000000" stroke="none">
<path d="M969 1939 c0 -2 -69 -300 -153 -661 l-153 -658 172 0 171 0 49 215
49 215 106 0 c204 0 344 27 480 92 197 95 306 277 286 477 -16 156 -107 253
-278 297 -50 13 -133 18 -395 21 -183 3 -333 3 -334 2z m565 -263 c53 -27 76
-68 76 -139 0 -70 -24 -123 -77 -166 -58 -48 -114 -63 -250 -68 l-122 -5 14
58 c8 33 28 124 46 202 l33 144 120 -4 c93 -3 130 -8 160 -22z"/>
</g>
</svg>
